<svg width="16" height="16" xmlns="http://www.w3.org/2000/svg">
    <path d="m8,1c-3.86,0 -7,3.14 -7,7c0,3.86 3.14,7 7,7c3.86,0 7,-3.14 7,-7c0,-3.86 -3.14,-7 -7,-7zm-0.7,12.55c-2.76,-0.34 -4.9,-2.69 -4.9,-5.55c0,-0.43 0.06,-0.85 0.15,-1.25l3.35,3.35l0,0.7c0,0.77 0.63,1.4 1.4,1.4l0,1.35zm4.83,-1.78c-0.18,-0.56 -0.7,-0.97 -1.33,-0.97l-0.7,0l0,-2.1c0,-0.39 -0.31,-0.7 -0.7,-0.7l-4.2,0l0,-1.4l1.4,0c0.39,0 0.7,-0.31 0.7,-0.7l0,-1.4l1.4,0c0.77,0 1.4,-0.63 1.4,-1.4l0,-0.29c2.05,0.84 3.5,2.85 3.5,5.19c0,1.46 -0.56,2.78 -1.47,3.77z"
          fill="#AFB1B3" fill-rule="evenodd"/>
    <text fill="#ff7f00" font-family="Monospace" font-size="12" font-weight="bold" stroke-width="0" text-anchor="middle"
          transform="matrix(0.90758 0 0 0.845711 1.76927 1.54131)" x="11.42" xml:space="preserve" y="15.9">ะก</text>
</svg>